<?xml version="1.0" encoding="iso-8859-1"?>
<!-- Generator: Adobe Illustrator 18.0.0, SVG Export Plug-In . SVG Version: 6.00 Build 0)  -->
<!DOCTYPE svg PUBLIC "-//W3C//DTD SVG 1.1//EN" "http://www.w3.org/Graphics/SVG/1.1/DTD/svg11.dtd">
<svg version="1.1" id="Capa_1" xmlns="http://www.w3.org/2000/svg" xmlns:xlink="http://www.w3.org/1999/xlink" x="0px" y="0px"
	 viewBox="0 0 240 240" style="enable-background:new 0 0 240 240;" xml:space="preserve">
<path d="M0.029,109.283h109.283V0H0.029V109.283z M20.029,20h69.283v69.283H20.029V20z M64.671,44.642h16.691v20H64.671v16.693h-20
	V64.642H27.978v-20h16.693V27.948h20V44.642z M0.198,240h109.283V130.717H0.198V240z M20.198,150.717h69.283V220H20.198V150.717z
	 M31.007,175.358h47.666v20H31.007V175.358z M130.574,239.83h109.284V130.547H130.574V239.83z M150.574,150.547h69.284v69.283
	h-69.284V150.547z M161.384,189.278h47.665v20h-47.665V189.278z M161.384,161.099h47.665v20h-47.665V161.099z M239.971,0.228
	H130.688v109.283h109.283V0.228z M219.971,89.511h-69.283V20.228h69.283V89.511z M159.384,66.672l11.804-11.803l-11.804-11.804
	l14.143-14.142l11.804,11.804l11.803-11.804l14.143,14.142l-11.803,11.804l11.803,11.803l-14.143,14.143L185.33,69.012
	l-11.804,11.803L159.384,66.672z"/>
<g>
</g>
<g>
</g>
<g>
</g>
<g>
</g>
<g>
</g>
<g>
</g>
<g>
</g>
<g>
</g>
<g>
</g>
<g>
</g>
<g>
</g>
<g>
</g>
<g>
</g>
<g>
</g>
<g>
</g>
</svg>
